<svg xmlns="http://www.w3.org/2000/svg" width="20" height="20" viewBox="0 0 20 20" fill="none">
  <path d="M2.6 10s2.55-4.5 7.4-4.5c1.42 0 2.65.38 3.69.93M17.4 10s-2.55 4.5-7.4 4.5c-1.42 0-2.65-.38-3.69-.93" stroke="#536A5F" stroke-width="1.4" stroke-linecap="round"/>
  <path d="M4 3.5 16 16.5" stroke="#536A5F" stroke-width="1.45" stroke-linecap="round"/>
  <path d="M8.7 6.05A3.4 3.4 0 0 1 13.4 10c0 .53-.12 1.03-.33 1.47M11.3 13.95A3.4 3.4 0 0 1 6.6 10c0-.53.12-1.03.33-1.47" stroke="#536A5F" stroke-width="1.2" stroke-linecap="round"/>
</svg>
